<?xml version="1.0" encoding="UTF-8"?>
<svg version="1.1" xmlns="http://www.w3.org/2000/svg" width="794" height="500">
<path d="M0 0 C22.11 0 44.22 0 67 0 C67 110.22 67 220.44 67 334 C44.89 334 22.78 334 0 334 C0 223.78 0 113.56 0 0 Z " fill="#F01E46" transform="translate(270,83)"/>
<path d="M0 0 C3.74194506 0.74838901 5.17292277 2.56740288 7.67578125 5.34765625 C9.54183719 7.28194092 11.44378253 8.99798432 13.48046875 10.74609375 C18.97738382 15.50544004 24.00706099 20.7091866 29.1015625 25.890625 C33.2119961 30.0434342 37.39917876 33.99541054 41.83007812 37.80273438 C45.40288143 40.97425731 48.71767033 44.40408041 52.0625 47.8125 C53.44030023 49.2159099 54.82043021 50.61703717 56.203125 52.015625 C56.80157227 52.62567383 57.40001953 53.23572266 58.01660156 53.86425781 C59.76219447 55.62449262 59.76219447 55.62449262 61.8939817 56.87616903 C63.8125 58.5625 63.8125 58.5625 64.30929399 60.70481557 C64.3077751 61.54209889 64.30625622 62.37938222 64.30469131 63.24203777 C64.31265551 64.2094281 64.3206197 65.17681842 64.32882524 66.1735236 C64.31134819 67.77126841 64.31134819 67.77126841 64.29351807 69.40129089 C64.29693577 70.53091462 64.30035347 71.66053835 64.30387473 72.82439309 C64.31049093 76.6295205 64.28841487 80.43395069 64.26660156 84.23901367 C64.26324958 86.958638 64.26592901 89.67824845 64.26837158 92.39787292 C64.270471 98.26324438 64.25790018 104.12843812 64.23542023 109.99376488 C64.20293906 118.4740559 64.19249721 126.95426082 64.18746826 135.4346073 C64.17870949 149.19270036 64.15207817 162.95069865 64.11425781 176.70874023 C64.07755275 190.07494634 64.04923364 203.44112673 64.03222656 216.80737305 C64.03065022 218.04280696 64.03065022 218.04280696 64.02904204 219.30319913 C64.02382196 223.43499074 64.01876711 227.56678252 64.01379442 231.69857442 C63.97231425 265.98663358 63.89856671 300.27451657 63.8125 334.5625 C41.3725 334.5625 18.9325 334.5625 -4.1875 334.5625 C-4.23155626 292.30170391 -4.26849787 250.04092939 -4.28963066 207.78011692 C-4.2921322 202.79563129 -4.29472083 197.81114571 -4.29736328 192.82666016 C-4.29815021 191.33812093 -4.29815021 191.33812093 -4.29895304 189.81951021 C-4.30766569 173.73213595 -4.32344038 157.64477593 -4.34180559 141.55741014 C-4.36048075 125.06148035 -4.37161166 108.56555803 -4.37567699 92.06961811 C-4.37842701 81.88327673 -4.38712582 71.69697557 -4.40333293 61.51064657 C-4.41387042 54.53413722 -4.417108 47.5576488 -4.41450275 40.58113207 C-4.41321639 36.55057633 -4.41524646 32.52009107 -4.42591095 28.48954773 C-4.43559033 24.80459658 -4.43616983 21.11976382 -4.42929779 17.4348074 C-4.42804265 15.45991004 -4.43671605 13.48501422 -4.44566262 11.51013672 C-4.44168052 10.3496673 -4.43769842 9.18919787 -4.43359566 7.9935627 C-4.4343551 6.98578494 -4.43511454 5.97800719 -4.43589699 4.93969071 C-4.09843676 1.71015352 -3.12144702 0.80265781 0 0 Z " fill="#0050B9" transform="translate(554.1875,82.4375)"/>
<path d="M0 0 C22.11 0 44.22 0 67 0 C67.37530657 34.87158449 67.68898229 69.74119731 67.8681106 104.614196 C67.88937071 108.73816222 67.91137437 112.86212415 67.93383789 116.98608398 C67.94052681 118.21750958 67.94052681 118.21750958 67.94735085 119.47381247 C68.02117429 132.73877629 68.15512492 146.00247809 68.31159753 159.26669507 C68.47099793 172.89351787 68.56508703 186.51968324 68.59950441 200.14739996 C68.62274658 208.54640947 68.69592717 216.94185163 68.83457994 225.33976174 C68.92497306 231.11134345 68.9514873 236.88110208 68.92952342 242.65333896 C68.91870401 245.97866692 68.94382308 249.29285323 69.02649307 252.61789322 C69.54473879 274.54997436 69.54473879 274.54997436 61.17401165 283.57925946 C58.30499104 286.31415216 55.34536487 288.84799925 52.21366107 291.27672207 C47.12768198 295.23602533 42.29594348 299.5569941 37.78125 304.15625 C37.07613281 304.86910156 36.37101562 305.58195312 35.64453125 306.31640625 C34.93683594 307.03699219 34.22914063 307.75757813 33.5 308.5 C28.75093696 313.33556693 23.94537766 317.97989399 18.80371094 322.39697266 C15.45356127 325.37437963 12.50401702 328.74558128 9.4921875 332.05859375 C7 334 7 334 3.7578125 334.34765625 C1 334 1 334 0 333 C-0.09742491 331.22765766 -0.12371438 329.45138566 -0.12304783 327.67636776 C-0.12503888 326.51440598 -0.12702993 325.35244421 -0.12908131 324.15527147 C-0.12616847 322.86249853 -0.12325563 321.56972559 -0.12025452 320.23777771 C-0.1206901 318.86335593 -0.12156476 317.48893423 -0.12284368 316.11451298 C-0.12509122 312.32003775 -0.12106385 308.52559047 -0.11606562 304.7311188 C-0.111765 300.64589029 -0.11320727 296.56066348 -0.1139679 292.47543335 C-0.11449338 285.39162761 -0.11134405 278.30783106 -0.10573006 271.22402763 C-0.09761833 260.98191618 -0.09500017 250.73980918 -0.09374207 240.49769486 C-0.09155103 223.88233116 -0.08488955 207.26697236 -0.07543945 190.65161133 C-0.06626667 174.50708033 -0.05918518 158.36255066 -0.05493164 142.21801758 C-0.05466892 141.22361077 -0.05440619 140.22920397 -0.05413551 139.20466363 C-0.05283051 134.21623854 -0.0515668 129.22781345 -0.05032361 124.23938835 C-0.03994938 82.82625455 -0.02151022 41.4131298 0 0 Z " fill="#F01E46" transform="translate(176,83)"/>
<path d="M0 0 C3.97289823 0.37907493 4.96389997 1.36003274 7.67724609 4.21704102 C8.47904297 5.04268555 9.28083984 5.86833008 10.10693359 6.71899414 C10.92677734 7.59362305 11.74662109 8.46825195 12.59130859 9.36938477 C14.22169132 11.07093499 15.8544765 12.77018675 17.48974609 14.46704102 C18.68494873 15.71130859 18.68494873 15.71130859 19.90429688 16.98071289 C22.56994621 19.66268827 25.37286989 22.11790493 28.24707031 24.57128906 C31.86860005 27.76313817 35.21123498 31.23839514 38.59130859 34.68188477 C39.99263606 36.10864468 41.3961721 37.53323984 42.80224609 38.95532227 C43.41116699 39.57584473 44.02008789 40.19636719 44.64746094 40.83569336 C46.16754321 42.40150439 46.16754321 42.40150439 48.21630859 43.30688477 C48.21630859 43.96688477 48.21630859 44.62688477 48.21630859 45.30688477 C48.7593246 45.5551385 49.3023406 45.80339224 49.86181164 46.05916882 C55.53301798 49.06450488 60.30870238 52.48304641 63.21630859 58.30688477 C65.32908806 66.90720219 64.60514781 76.10919708 64.46508789 84.89160156 C64.45584305 87.61243551 64.46324742 90.33316566 64.46995544 93.05400085 C64.47570358 98.89789729 64.44140537 104.74043536 64.37933922 110.5839901 C64.2896651 119.03237883 64.26126585 127.48011556 64.24747131 135.92892859 C64.22343898 149.63853762 64.15035241 163.34742375 64.04614258 177.05664062 C63.94506174 190.36812746 63.86725441 203.67941744 63.82055664 216.99121094 C63.81766668 217.81273176 63.81477672 218.63425258 63.81179919 219.48066797 C63.79744303 223.60229343 63.78354242 227.72392027 63.76986825 231.84554803 C63.6559668 265.9999677 63.45325562 300.15304202 63.21630859 334.30688477 C41.10630859 334.30688477 18.99630859 334.30688477 -3.78369141 334.30688477 C-3.80571692 291.90167411 -3.82418872 249.49646882 -3.83475674 207.09125409 C-3.83600752 202.09045845 -3.83730183 197.08966281 -3.83862305 192.08886719 C-3.83888536 191.09325478 -3.83914767 190.09764237 -3.83941793 189.07185989 C-3.84377501 172.92885028 -3.85166276 156.78584421 -3.8608442 140.6428367 C-3.87017969 124.09154046 -3.87574679 107.54024609 -3.8777799 90.98894733 C-3.87915535 80.76730033 -3.8835071 70.54566334 -3.89160787 60.32401942 C-3.89687404 53.32462705 -3.898496 46.32523988 -3.89719278 39.32584567 C-3.8965492 35.28125771 -3.8975692 31.23668731 -3.90289688 27.19210243 C-3.90773091 23.49551258 -3.90803004 19.79895223 -3.9045903 16.10236108 C-3.90396166 14.11877671 -3.90830337 12.13519273 -3.91277272 10.1516133 C-3.91078167 8.98965152 -3.90879062 7.82768974 -3.90673923 6.63051701 C-3.90711896 5.61932177 -3.90749868 4.60812653 -3.9078899 3.56628901 C-3.72381423 0.21760638 -3.37681926 0.37227344 0 0 Z " fill="#0050B9" transform="translate(647.78369140625,82.693115234375)"/>
<path d="M0 0 C4.2542557 0.45437823 5.44304238 1.85086772 8.37451172 4.91430664 C8.83536163 5.38601791 9.29621155 5.85772919 9.77102661 6.34373474 C11.23964011 7.85239004 12.68629216 9.38011705 14.13232422 10.91040039 C16.04115008 12.89595167 17.95787306 14.87380022 19.87451172 16.85180664 C20.57293182 17.5771611 20.57293182 17.5771611 21.28546143 18.31716919 C24.49027035 21.62587377 27.83020569 24.67791487 31.3359375 27.66015625 C35.75257836 31.53972909 39.78498188 35.83963196 43.90185547 40.03149414 C47.90393382 44.07747098 51.97504548 47.94753909 56.31787109 51.62719727 C56.95789063 52.1950293 57.59791016 52.76286133 58.25732422 53.34790039 C59.10992419 53.97987933 59.96252417 54.61185827 60.8409605 55.26298809 C64.41470731 59.825503 63.93619514 63.78303273 63.8585968 69.42720032 C63.86286893 70.55853289 63.86714105 71.68986547 63.87154263 72.85548085 C63.87979252 76.65454219 63.85225232 80.45250484 63.82495117 84.25146484 C63.82075815 86.97138672 63.82411151 89.69128698 63.8271637 92.41120911 C63.82978506 98.27113069 63.81410211 104.13077384 63.7859745 109.99062538 C63.74533345 118.46293009 63.73231669 126.93510021 63.72603454 135.40749183 C63.71509229 149.15341071 63.68182001 162.89918121 63.63452148 176.64501953 C63.58862408 189.99755104 63.55323308 203.35004225 63.53198242 216.70263672 C63.5306688 217.52573388 63.52935519 218.34883104 63.52800176 219.19687054 C63.52147656 223.32612078 63.51515802 227.45537131 63.50894225 231.58462203 C63.45711135 265.83917964 63.36493741 300.09346132 63.25732422 334.34790039 C41.14732422 334.34790039 19.03732422 334.34790039 -3.74267578 334.34790039 C-3.76470129 291.94268973 -3.7831731 249.53748445 -3.79374111 207.13226971 C-3.79499189 202.13147407 -3.79628621 197.13067844 -3.79760742 192.12988281 C-3.79786973 191.1342704 -3.79813204 190.138658 -3.7984023 189.11287551 C-3.80275938 172.9698659 -3.81064714 156.82685983 -3.81982858 140.68385232 C-3.82916406 124.13255609 -3.83473117 107.58126172 -3.83676428 91.02996296 C-3.83813972 80.80831596 -3.84249148 70.58667897 -3.85059225 60.36503505 C-3.85585841 53.36564267 -3.85748037 46.36625551 -3.85617716 39.36686129 C-3.85553357 35.32227333 -3.85655357 31.27770293 -3.86188126 27.23311806 C-3.86671528 23.5365282 -3.86701441 19.83996786 -3.86357468 16.1433767 C-3.86294604 14.15979233 -3.86728774 12.17620835 -3.87175709 10.19262892 C-3.86976604 9.03066714 -3.86777499 7.86870537 -3.86572361 6.67153263 C-3.86610333 5.66033739 -3.86648305 4.64914215 -3.86687428 3.60730463 C-3.684068 0.28171463 -3.34254352 0.42399186 0 0 Z " fill="#0050B9" transform="translate(460.74267578125,82.652099609375)"/>
<path d="M0 0 C22.11 0 44.22 0 67 0 C67 53.13 67 106.26 67 161 C60 162 60 162 58.04711914 160.93945312 C57.54817139 160.39224609 57.04922363 159.84503906 56.53515625 159.28125 C55.96216797 158.67796875 55.38917969 158.0746875 54.79882812 157.453125 C54.22583984 156.80859375 53.65285156 156.1640625 53.0625 155.5 C51.91034889 154.2578167 50.75538345 153.01823798 49.59765625 151.78125 C49.01258301 151.15089844 48.42750977 150.52054688 47.82470703 149.87109375 C45.38304296 147.36735901 42.74894438 145.13192931 40.09545898 142.85742188 C35.40771017 138.7021856 31.10074641 134.13659533 26.7109375 129.671875 C23.2952833 126.22100787 19.88209602 122.84012016 16.1875 119.6875 C15.58520569 119.1434552 14.98291138 118.5994104 14.36236572 118.03887939 C11.95827644 115.90199644 11.95827644 115.90199644 9.00726318 113.855896 C3.66874601 109.72267257 -0.06287701 105.77668347 -1.05627441 98.90466309 C-1.54227854 92.62751079 -1.35140136 86.36477077 -1.171875 80.078125 C-1.14946098 77.76361513 -1.13239481 75.44904788 -1.12042236 73.13446045 C-1.07485674 67.07653376 -0.95721306 61.02212412 -0.82397461 54.96557617 C-0.67893728 47.68068116 -0.62441496 40.39460219 -0.55453491 33.1086731 C-0.43861897 22.07001148 -0.20857543 11.03904801 0 0 Z " fill="#F01E46" transform="translate(83,83)"/>
<path d="M0 0 C4.53583488 0.89208941 6.87774 4.1296253 9.9453125 7.4296875 C11.17500298 8.72073468 12.40669821 10.00987609 13.640625 11.296875 C14.44910889 12.16094971 14.44910889 12.16094971 15.27392578 13.04248047 C16.9500139 14.7748721 16.9500139 14.7748721 19.8203125 16.5546875 C19.8203125 17.2146875 19.8203125 17.8746875 19.8203125 18.5546875 C20.39233398 18.80001221 20.96435547 19.04533691 21.55371094 19.2980957 C24.20768047 20.76944223 25.96530433 22.49021151 28.0859375 24.66015625 C29.29830078 25.88895508 29.29830078 25.88895508 30.53515625 27.14257812 C31.37175781 28.00044922 32.20835937 28.85832031 33.0703125 29.7421875 C38.23533037 35.01666807 43.40432282 40.16631355 49.01171875 44.97094727 C52.21908515 47.77955766 55.15224662 50.84446135 58.125 53.8984375 C60.71167823 56.56793435 60.71167823 56.56793435 63.8203125 58.5546875 C64.02377831 64.97706736 64.16350561 71.39861192 64.25976562 77.82348633 C64.29990563 80.00707046 64.35443257 82.19044078 64.42382812 84.37329102 C64.52130061 87.51892867 64.56633271 90.66171744 64.6015625 93.80859375 C64.64285278 94.7786586 64.68414307 95.74872345 64.72668457 96.7481842 C64.72932465 100.76971395 64.71012927 103.46149994 62.11132812 106.65426636 C60.08805286 108.42536131 57.99869051 109.98147693 55.8203125 111.5546875 C54.61139389 112.69914508 53.42034701 113.86314192 52.2578125 115.0546875 C51.68804687 115.6321875 51.11828125 116.2096875 50.53125 116.8046875 C49.96664062 117.3821875 49.40203125 117.9596875 48.8203125 118.5546875 C45.30237673 122.15294144 41.76346222 125.64834695 37.9453125 128.9296875 C33.33522785 132.90910546 29.08795594 137.21421738 24.8203125 141.5546875 C19.87190427 146.58753956 14.90175919 151.48561246 9.51635742 156.05297852 C7.57835523 157.71601184 7.57835523 157.71601184 5.1328125 160.4921875 C2.8203125 162.5546875 2.8203125 162.5546875 0.1328125 162.9921875 C-2.1796875 162.5546875 -2.1796875 162.5546875 -4.1796875 160.5546875 C-4.43136978 157.84663391 -4.43136978 157.84663391 -4.43365479 154.3293457 C-4.43677477 153.68384671 -4.43989475 153.03834772 -4.44310927 152.37328815 C-4.45111528 150.20059003 -4.44475569 148.02816918 -4.43847656 145.85546875 C-4.44118528 144.30178666 -4.44474553 142.74810585 -4.44909668 141.19442749 C-4.45823721 136.96724187 -4.45466961 132.74015355 -4.44833851 128.51296616 C-4.4432871 124.09628785 -4.44796756 119.67961807 -4.45111084 115.26293945 C-4.454753 107.84487405 -4.44994485 100.42684843 -4.44042969 93.00878906 C-4.42954465 84.42343998 -4.43307006 75.83818587 -4.4440825 67.25283909 C-4.45314827 59.89146135 -4.45444414 52.53011225 -4.44920516 45.16873074 C-4.44608154 40.76779561 -4.44568682 36.36690518 -4.45227814 31.9659729 C-4.45804068 27.82918459 -4.45407485 23.69251916 -4.44248962 19.55574417 C-4.43983717 18.03433054 -4.44061806 16.51290663 -4.44501495 14.99149704 C-4.45044895 12.92086652 -4.44366293 10.85063418 -4.43365479 8.7800293 C-4.43290073 7.61932419 -4.43214668 6.45861908 -4.43136978 5.26274109 C-4.11330682 1.84044398 -3.34768801 0.8519206 0 0 Z " fill="#F01E46" transform="translate(367.1796875,254.4453125)"/>
<path d="M0 0 C3.9197095 0.63914455 5.34336974 2.62635488 8.01953125 5.50390625 C11.07758421 8.75838889 14.11075884 11.84097829 17.5 14.75 C22.96168974 19.45942293 27.94329155 24.63050376 32.99609375 29.76953125 C37.12380751 33.93979876 41.32842774 37.91201799 45.77832031 41.73535156 C49.02999146 44.61163991 52.04684618 47.71509515 55.08203125 50.81640625 C56.29584854 52.05567044 57.51188754 53.29276366 58.73046875 54.52734375 C59.25560059 55.06407715 59.78073242 55.60081055 60.32177734 56.15380859 C61.69806915 57.55416628 61.69806915 57.55416628 63.70703125 58.44140625 C63.91049706 64.86378611 64.05022436 71.28533067 64.14648438 77.71020508 C64.18662438 79.89378921 64.24115132 82.07715953 64.31054688 84.26000977 C64.40801936 87.40564742 64.45305146 90.54843619 64.48828125 93.6953125 C64.52957153 94.66537735 64.57086182 95.6354422 64.61340332 96.63490295 C64.61605896 100.68012651 64.59292312 103.35573761 61.97497559 106.5640564 C59.95916089 108.33073225 57.88748163 109.88604772 55.70703125 111.44140625 C54.71545223 112.36541578 53.7440818 113.31191083 52.80078125 114.28515625 C44.95935144 122.31553618 44.95935144 122.31553618 40.95703125 125.69140625 C35.92924997 129.95134646 31.39396102 134.7378053 26.80957031 139.46386719 C26.18018555 140.10485352 25.55080078 140.74583984 24.90234375 141.40625 C24.33531738 141.99011475 23.76829102 142.57397949 23.18408203 143.17553711 C21.70703125 144.44140625 21.70703125 144.44140625 19.70703125 144.44140625 C19.37703125 145.43140625 19.04703125 146.42140625 18.70703125 147.44140625 C17.140625 148.984375 17.140625 148.984375 15.14453125 150.62890625 C11.34179297 153.81829964 7.98512055 157.25287349 4.6640625 160.9375 C2.70703125 162.44140625 2.70703125 162.44140625 0.09375 162.7890625 C-2.29296875 162.44140625 -2.29296875 162.44140625 -4.29296875 160.44140625 C-4.54465103 157.73335266 -4.54465103 157.73335266 -4.54693604 154.21606445 C-4.55005602 153.57056546 -4.553176 152.92506647 -4.55639052 152.2600069 C-4.56439653 150.08730878 -4.55803694 147.91488793 -4.55175781 145.7421875 C-4.55446653 144.18850541 -4.55802678 142.6348246 -4.56237793 141.08114624 C-4.57151846 136.85396062 -4.56795086 132.6268723 -4.56161976 128.39968491 C-4.55656835 123.9830066 -4.56124881 119.56633682 -4.56439209 115.1496582 C-4.56803425 107.7315928 -4.5632261 100.31356718 -4.55371094 92.89550781 C-4.5428259 84.31015873 -4.54635131 75.72490462 -4.55736375 67.13955784 C-4.56642952 59.7781801 -4.56772539 52.416831 -4.56248641 45.05544949 C-4.55936279 40.65451436 -4.55896807 36.25362393 -4.56555939 31.85269165 C-4.57132193 27.71590334 -4.5673561 23.57923791 -4.55577087 19.44246292 C-4.55311842 17.92104929 -4.55389931 16.39962538 -4.5582962 14.87821579 C-4.5637302 12.80758527 -4.55694418 10.73735293 -4.54693604 8.66674805 C-4.54618198 7.50604294 -4.54542793 6.34533783 -4.54465103 5.14945984 C-4.22125455 1.66977506 -3.45936583 0.66594266 0 0 Z " fill="#F01E46" transform="translate(367.29296875,82.55859375)"/>
</svg>
